<?xml version="1.0" encoding="UTF-8"?>
<svg width="18px" height="18px" viewBox="0 0 18 18" version="1.1" xmlns="http://www.w3.org/2000/svg" xmlns:xlink="http://www.w3.org/1999/xlink">
    <!-- Generator: Sketch 49.2 (51160) - http://www.bohemiancoding.com/sketch -->
    <title>Flag</title>
    <desc>Created with Sketch.</desc>
    <defs></defs>
    <g id="Page-1" stroke="none" stroke-width="1" fill="none" fill-rule="evenodd">
        <g id="Landing-(Ikke-logget-ind)" transform="translate(-1173.000000, -25.000000)">
            <g id="Menubar">
                <g id="Flag" transform="translate(1174.000000, 26.000000)">
                    <path d="M15.7239467,7.95118222 C15.7239467,12.2448711 12.2441244,15.7243378 7.95114667,15.7243378 C3.65745778,15.7243378 0.177635556,12.2448711 0.177635556,7.95118222 C0.177635556,3.65749333 3.65745778,0.177671111 7.95114667,0.177671111 C12.2441244,0.177671111 15.7239467,3.65749333 15.7239467,7.95118222 Z" id="Stroke-1" stroke="#706F70"></path>
                    <path d="M0.265635556,9.11630222 C0.711146667,12.0766578 2.82563556,14.4891022 5.61959111,15.3666133 L5.61959111,9.11630222 L0.265635556,9.11630222 Z" id="Fill-3" fill="#C00C30"></path>
                    <path d="M5.61944889,0.533831111 C2.82584889,1.41134222 0.711004444,3.82449778 0.265493333,6.78414222 L5.61944889,6.78414222 L5.61944889,0.533831111 Z" id="Fill-5" fill="#C00C30"></path>
                    <path d="M7.95104,15.7225244 L7.96632889,15.7225244 C11.8557511,15.7150578 15.0749511,12.8507022 15.6367289,9.11630222 L7.95104,9.11630222 L7.95104,15.7225244 Z" id="Fill-7" fill="#C00C30"></path>
                    <path d="M7.95104,6.78417778 L15.6367289,6.78417778 C15.07424,3.048 11.8529067,0.182933333 7.96099556,0.1776 L7.95104,0.1776 L7.95104,6.78417778 Z" id="Fill-9" fill="#C00C30"></path>
                    <path d="M7.95104,9.11630222 L15.6367289,9.11630222 C15.6939733,8.73585778 15.72384,8.34652444 15.72384,7.95043556 C15.72384,7.55399111 15.6939733,7.16465778 15.6367289,6.78421333 L7.95104,6.78421333 L7.95104,0.177635556 C7.13895111,0.177635556 6.35566222,0.302791111 5.61930667,0.533902222 L5.61930667,6.78421333 L0.265706667,6.78421333 C0.209528889,7.16465778 0.178951111,7.55399111 0.178951111,7.95043556 C0.178951111,8.34652444 0.209528889,8.73585778 0.265706667,9.11630222 L5.61930667,9.11630222 L5.61930667,15.3666133 C6.35566222,15.5977244 7.13895111,15.72288 7.95104,15.72288 L7.95104,15.7225244 L7.95104,9.11630222 Z" id="Fill-11" fill="#FFFFFF"></path>
                </g>
            </g>
        </g>
    </g>
</svg>